<mxfile host="app.diagrams.net" modified="2024-02-16T10:47:36.307Z" agent="Mozilla/5.0 (Macintosh; Intel Mac OS X 10.15; rv:122.0) Gecko/20100101 Firefox/122.0" etag="ZT12n9P468BsW3i-pRje" version="23.1.4" type="device">
  <diagram name="Page-1" id="gINBaxE9Tlw3zWZqXhgz">
    <mxGraphModel dx="1445" dy="836" grid="1" gridSize="10" guides="1" tooltips="1" connect="1" arrows="1" fold="1" page="1" pageScale="1" pageWidth="850" pageHeight="1100" math="0" shadow="0">
      <root>
        <mxCell id="0" />
        <mxCell id="1" parent="0" />
        <mxCell id="UUn8Jmd5jtuTq1x6FG5Z-7" style="edgeStyle=orthogonalEdgeStyle;rounded=0;orthogonalLoop=1;jettySize=auto;html=1;exitX=0.5;exitY=0;exitDx=0;exitDy=0;entryX=0;entryY=1;entryDx=0;entryDy=0;" edge="1" parent="1" source="UUn8Jmd5jtuTq1x6FG5Z-2" target="UUn8Jmd5jtuTq1x6FG5Z-4">
          <mxGeometry relative="1" as="geometry" />
        </mxCell>
        <mxCell id="UUn8Jmd5jtuTq1x6FG5Z-2" value="" style="shape=actor;whiteSpace=wrap;html=1;" vertex="1" parent="1">
          <mxGeometry x="250" y="470" width="40" height="60" as="geometry" />
        </mxCell>
        <mxCell id="UUn8Jmd5jtuTq1x6FG5Z-11" style="edgeStyle=orthogonalEdgeStyle;rounded=0;orthogonalLoop=1;jettySize=auto;html=1;exitX=1;exitY=0.85;exitDx=0;exitDy=0;exitPerimeter=0;entryX=0.75;entryY=0;entryDx=0;entryDy=0;" edge="1" parent="1" source="UUn8Jmd5jtuTq1x6FG5Z-3" target="UUn8Jmd5jtuTq1x6FG5Z-4">
          <mxGeometry relative="1" as="geometry" />
        </mxCell>
        <mxCell id="UUn8Jmd5jtuTq1x6FG5Z-3" value="" style="strokeWidth=2;html=1;shape=mxgraph.flowchart.database;whiteSpace=wrap;" vertex="1" parent="1">
          <mxGeometry x="360" y="120" width="60" height="60" as="geometry" />
        </mxCell>
        <mxCell id="UUn8Jmd5jtuTq1x6FG5Z-12" style="edgeStyle=orthogonalEdgeStyle;rounded=0;orthogonalLoop=1;jettySize=auto;html=1;exitX=0;exitY=0.75;exitDx=0;exitDy=0;" edge="1" parent="1" source="UUn8Jmd5jtuTq1x6FG5Z-4">
          <mxGeometry relative="1" as="geometry">
            <mxPoint x="270" y="470" as="targetPoint" />
          </mxGeometry>
        </mxCell>
        <mxCell id="UUn8Jmd5jtuTq1x6FG5Z-13" style="edgeStyle=orthogonalEdgeStyle;rounded=0;orthogonalLoop=1;jettySize=auto;html=1;exitX=0.25;exitY=1;exitDx=0;exitDy=0;" edge="1" parent="1" source="UUn8Jmd5jtuTq1x6FG5Z-4">
          <mxGeometry relative="1" as="geometry">
            <mxPoint x="380" y="470" as="targetPoint" />
          </mxGeometry>
        </mxCell>
        <mxCell id="UUn8Jmd5jtuTq1x6FG5Z-14" style="edgeStyle=orthogonalEdgeStyle;rounded=0;orthogonalLoop=1;jettySize=auto;html=1;exitX=1;exitY=0.75;exitDx=0;exitDy=0;entryX=0.5;entryY=0;entryDx=0;entryDy=0;" edge="1" parent="1" source="UUn8Jmd5jtuTq1x6FG5Z-4" target="UUn8Jmd5jtuTq1x6FG5Z-6">
          <mxGeometry relative="1" as="geometry" />
        </mxCell>
        <mxCell id="UUn8Jmd5jtuTq1x6FG5Z-4" value="App" style="html=1;whiteSpace=wrap;" vertex="1" parent="1">
          <mxGeometry x="335" y="280" width="110" height="50" as="geometry" />
        </mxCell>
        <mxCell id="UUn8Jmd5jtuTq1x6FG5Z-8" style="edgeStyle=orthogonalEdgeStyle;rounded=0;orthogonalLoop=1;jettySize=auto;html=1;exitX=0.5;exitY=0;exitDx=0;exitDy=0;entryX=0.5;entryY=1;entryDx=0;entryDy=0;" edge="1" parent="1" source="UUn8Jmd5jtuTq1x6FG5Z-5" target="UUn8Jmd5jtuTq1x6FG5Z-4">
          <mxGeometry relative="1" as="geometry" />
        </mxCell>
        <mxCell id="UUn8Jmd5jtuTq1x6FG5Z-5" value="" style="shape=actor;whiteSpace=wrap;html=1;" vertex="1" parent="1">
          <mxGeometry x="360" y="470" width="40" height="60" as="geometry" />
        </mxCell>
        <mxCell id="UUn8Jmd5jtuTq1x6FG5Z-9" style="edgeStyle=orthogonalEdgeStyle;rounded=0;orthogonalLoop=1;jettySize=auto;html=1;exitX=0.5;exitY=0;exitDx=0;exitDy=0;entryX=1;entryY=1;entryDx=0;entryDy=0;" edge="1" parent="1" source="UUn8Jmd5jtuTq1x6FG5Z-6" target="UUn8Jmd5jtuTq1x6FG5Z-4">
          <mxGeometry relative="1" as="geometry" />
        </mxCell>
        <mxCell id="UUn8Jmd5jtuTq1x6FG5Z-6" value="" style="shape=actor;whiteSpace=wrap;html=1;" vertex="1" parent="1">
          <mxGeometry x="480" y="470" width="40" height="60" as="geometry" />
        </mxCell>
        <mxCell id="UUn8Jmd5jtuTq1x6FG5Z-10" style="edgeStyle=orthogonalEdgeStyle;rounded=0;orthogonalLoop=1;jettySize=auto;html=1;exitX=0.5;exitY=0;exitDx=0;exitDy=0;entryX=0;entryY=0.85;entryDx=0;entryDy=0;entryPerimeter=0;" edge="1" parent="1" source="UUn8Jmd5jtuTq1x6FG5Z-4" target="UUn8Jmd5jtuTq1x6FG5Z-3">
          <mxGeometry relative="1" as="geometry" />
        </mxCell>
        <mxCell id="UUn8Jmd5jtuTq1x6FG5Z-15" value="The user connects to the application" style="text;html=1;align=center;verticalAlign=middle;whiteSpace=wrap;rounded=0;" vertex="1" parent="1">
          <mxGeometry x="150" y="460" width="80" height="90" as="geometry" />
        </mxCell>
        <mxCell id="UUn8Jmd5jtuTq1x6FG5Z-16" value="When the user connects to the app, they will have the pages of the app they can access " style="text;html=1;align=center;verticalAlign=middle;whiteSpace=wrap;rounded=0;" vertex="1" parent="1">
          <mxGeometry x="520" y="290" width="150" height="130" as="geometry" />
        </mxCell>
        <mxCell id="UUn8Jmd5jtuTq1x6FG5Z-17" value="The data will be store on a mongoDB that the app will connect to, and after querying it will return the data to the app for the user" style="text;html=1;align=center;verticalAlign=middle;whiteSpace=wrap;rounded=0;" vertex="1" parent="1">
          <mxGeometry x="460" y="120" width="160" height="90" as="geometry" />
        </mxCell>
        <mxCell id="UUn8Jmd5jtuTq1x6FG5Z-19" value="User enters item" style="text;html=1;align=center;verticalAlign=middle;whiteSpace=wrap;rounded=0;" vertex="1" parent="1">
          <mxGeometry x="20" y="600" width="80" height="50" as="geometry" />
        </mxCell>
        <mxCell id="UUn8Jmd5jtuTq1x6FG5Z-24" style="edgeStyle=orthogonalEdgeStyle;rounded=0;orthogonalLoop=1;jettySize=auto;html=1;exitX=1;exitY=0.25;exitDx=0;exitDy=0;" edge="1" parent="1" source="UUn8Jmd5jtuTq1x6FG5Z-20">
          <mxGeometry relative="1" as="geometry">
            <mxPoint x="360" y="618" as="targetPoint" />
          </mxGeometry>
        </mxCell>
        <mxCell id="UUn8Jmd5jtuTq1x6FG5Z-20" value="Application takes item and then query&#39;s the database to see if it exsits" style="text;html=1;align=center;verticalAlign=middle;whiteSpace=wrap;rounded=0;" vertex="1" parent="1">
          <mxGeometry x="170" y="600" width="90" height="70" as="geometry" />
        </mxCell>
        <mxCell id="UUn8Jmd5jtuTq1x6FG5Z-25" style="edgeStyle=orthogonalEdgeStyle;rounded=0;orthogonalLoop=1;jettySize=auto;html=1;exitX=1;exitY=0.25;exitDx=0;exitDy=0;entryX=0;entryY=0.25;entryDx=0;entryDy=0;" edge="1" parent="1" source="UUn8Jmd5jtuTq1x6FG5Z-21" target="UUn8Jmd5jtuTq1x6FG5Z-22">
          <mxGeometry relative="1" as="geometry" />
        </mxCell>
        <mxCell id="UUn8Jmd5jtuTq1x6FG5Z-21" value="Databases will check and send the application back a yes or no. " style="text;html=1;align=center;verticalAlign=middle;whiteSpace=wrap;rounded=0;" vertex="1" parent="1">
          <mxGeometry x="370" y="600" width="100" height="80" as="geometry" />
        </mxCell>
        <mxCell id="UUn8Jmd5jtuTq1x6FG5Z-22" value="The app will tell the user if the item is not in the database, " style="text;html=1;align=center;verticalAlign=middle;whiteSpace=wrap;rounded=0;" vertex="1" parent="1">
          <mxGeometry x="560" y="600" width="80" height="80" as="geometry" />
        </mxCell>
        <mxCell id="UUn8Jmd5jtuTq1x6FG5Z-23" style="edgeStyle=orthogonalEdgeStyle;rounded=0;orthogonalLoop=1;jettySize=auto;html=1;exitX=1;exitY=0.25;exitDx=0;exitDy=0;entryX=0;entryY=0.171;entryDx=0;entryDy=0;entryPerimeter=0;" edge="1" parent="1" source="UUn8Jmd5jtuTq1x6FG5Z-19" target="UUn8Jmd5jtuTq1x6FG5Z-20">
          <mxGeometry relative="1" as="geometry" />
        </mxCell>
      </root>
    </mxGraphModel>
  </diagram>
</mxfile>
